<svg width="1050" height="465" viewBox="0 0 1050 465" fill="none" xmlns="http://www.w3.org/2000/svg">
<rect width="1050" height="465" fill="#E5E5E5"/>
<rect width="1050" height="465" fill="white"/>
<path d="M149.001 173.852H159.955V195.102C165.213 182.177 176.167 172.1 198.511 172.1C223.92 172.1 241.008 189.186 241.008 216.132V284.26H230.055V218.322C230.055 196.197 216.472 182.396 196.1 182.396C173.975 182.396 159.953 199.482 159.953 224.893V284.26H149V173.852H149.001Z" fill="#101010"/>
<path d="M271.681 221.832C272.548 199.258 291.388 181.525 314.401 181.525C336.308 181.525 353.828 199.258 354.041 221.832H271.681ZM365.654 226.205C365.654 195.978 344.401 171.218 314.388 171.218C283.948 171.218 260.508 194.885 260.508 229.272V229.938C260.508 264.112 283.068 287.325 314.828 287.325C333.454 287.325 345.934 282.072 356.228 272.872V259.938C349.668 268.272 335.428 277.032 314.828 277.032C289.641 277.032 271.894 258.192 271.241 231.685H365.441C365.654 229.498 365.654 226.205 365.654 226.205" fill="#101010"/>
<path d="M440.801 276.819C413.854 276.819 393.694 256.219 393.694 229.059C393.694 201.899 413.854 181.299 440.801 181.299C467.734 181.299 487.894 201.899 487.894 229.059C487.894 256.219 467.734 276.819 440.801 276.819ZM440.801 171.005C408.374 171.005 382.747 195.765 382.747 229.059C382.747 262.351 408.374 287.112 440.801 287.112C473.214 287.112 498.841 262.351 498.841 229.059C498.841 195.765 473.214 171.005 440.801 171.005Z" fill="#101010"/>
<path d="M556.68 173.852H568.946L522.066 273.745H590.196V237.6H601.586V326.54H590.196V284.26H504.76L556.68 173.852Z" fill="#101010"/>
<path d="M779.788 276.272C776.628 284.565 768.76 290.19 757.708 292.058C754.281 292.685 746.188 292.577 742.508 291.925C734.494 290.498 726.894 286.538 722.201 281.338C720.348 279.312 716.788 274.018 717.001 273.618C717.081 273.498 717.921 273.005 718.841 272.47L726.254 268.19L731.988 264.845L733.201 266.645C734.868 269.205 738.548 272.725 740.774 273.898C747.148 277.244 755.881 276.765 760.188 272.91C762.028 271.232 762.774 269.485 762.774 266.925C762.774 264.618 762.494 263.592 761.308 261.845C759.734 259.645 756.574 257.765 747.588 253.872C737.281 249.432 732.841 246.672 728.788 242.312C726.441 239.765 724.228 235.712 723.308 232.325C722.534 229.498 722.361 222.445 722.961 219.592C725.081 209.605 732.588 202.712 743.426 200.645C746.948 199.978 755.121 200.245 758.561 201.098L758.588 201.072C763.628 202.352 767.508 204.592 771.054 208.258C772.908 210.232 775.614 213.805 775.854 214.658C775.854 214.965 767.201 220.765 761.961 224.018C761.788 224.138 761.014 223.312 760.148 222.045C757.588 218.298 754.908 216.698 750.788 216.418C744.721 215.992 740.801 219.165 740.854 224.445C740.854 226.005 741.081 226.912 741.708 228.192C743.041 230.952 745.508 232.605 753.268 235.965C767.574 242.112 773.681 246.152 777.481 251.925C781.721 258.365 782.668 268.632 779.788 276.272ZM685.801 217.565V291.392H667.414V217.565H641.454V209.552L641.668 201.338C641.748 201.192 657.574 201.138 676.748 201.178L711.614 201.258L711.721 209.405L711.774 217.565H685.801ZM787.828 246.205C787.828 225.218 798.854 206.752 815.414 196.298C794.188 155.085 756.734 135.285 755.561 134.672L761.534 140.325L776.948 154.885L756.641 148.738L720.028 137.632L716.801 136.658L716.494 133.325L715.628 124.032C662.426 140.845 623.868 190.592 623.868 249.338C623.868 303.152 656.201 349.405 702.508 369.712C705.388 350.804 721.76 336.244 741.468 336.244C756.068 336.244 768.841 344.232 775.641 356.072C794.774 340.832 809.694 320.832 818.494 297.952C800.241 287.91 787.828 268.485 787.828 246.205" fill="#007ACC"/>
<path d="M878.001 296.268C862.071 337.97 825.481 369.458 780.764 378.261C780.827 377.398 780.853 376.522 780.853 375.634C780.853 372.909 780.577 370.234 780.039 367.657C804.211 352.514 823.556 330.368 835.223 304.058C838.973 304.808 842.851 305.209 846.815 305.209C858.256 305.209 868.948 301.932 878.001 296.268" fill="#007ACC"/>
<path d="M784.029 121.126C824.281 130.105 857.569 157.577 874.525 194.154C866.259 189.728 856.819 187.226 846.815 187.226C842.901 187.226 839.074 187.614 835.373 188.352C835.347 188.277 835.31 188.189 835.274 188.114C833.998 183.6 825.457 158.602 784.029 121.126Z" fill="#007ACC"/>
<path d="M776.1 375.64C776.1 394.632 760.704 410.028 741.712 410.028C722.72 410.028 707.324 394.632 707.324 375.64C707.324 356.648 722.72 341.252 741.712 341.252C760.704 341.252 776.1 356.648 776.1 375.64Z" fill="#68B346"/>
<path d="M901.051 246.216C901.051 276.032 876.88 300.202 847.065 300.202C817.248 300.202 793.079 276.032 793.079 246.216C793.079 216.401 817.248 192.23 847.065 192.23C876.88 192.23 901.051 216.401 901.051 246.216Z" fill="#68B346"/>
<path d="M748.401 137.472L725.508 130.525L724.321 117.818L727.681 120.312L728.681 128.005L748.401 137.472ZM694.361 70.4449C697.014 66.8849 702.041 66.1249 705.614 68.7649C709.188 71.4183 709.921 76.4583 707.281 80.0183C704.641 83.6049 699.601 84.3383 696.028 81.6983C692.468 79.0449 691.721 74.0049 694.361 70.4449ZM710.494 82.4183C712.374 79.8583 715.974 79.3249 718.534 81.2049C721.081 83.0983 721.601 86.6983 719.721 89.2583C717.828 91.8049 714.228 92.3249 711.694 90.4449C709.134 88.5516 708.601 84.9516 710.494 82.4183V82.4183ZM722.974 91.8583C724.574 89.7116 727.588 89.2716 729.708 90.8583C731.841 92.4449 732.294 95.4583 730.708 97.5916C729.121 99.7249 726.108 100.165 723.974 98.5916C721.841 97.0049 721.388 93.9916 722.974 91.8583ZM761.308 82.2449L774.601 102.152L759.801 86.0316L752.148 87.2983L748.788 84.8049L761.308 82.2449ZM757.828 95.9516C757.788 95.8849 757.721 95.8049 757.654 95.7249L783.281 110.365L762.014 78.5383L744.721 82.0583C740.788 78.4449 736.454 74.8716 731.801 71.4049C705.348 51.8049 671.214 53.0049 670.854 53.0183C670.854 53.0183 670.854 53.0316 670.868 53.0449C670.988 53.5383 673.201 61.6716 678.534 72.1116C684.028 82.8983 692.854 96.1383 706.148 105.992C710.814 109.458 715.508 112.565 720.094 115.272L721.748 132.845L758.361 143.952L736.961 123.712C748.921 131.085 761.801 131.765 767.081 124.818C772.401 117.832 768.228 105.552 757.828 95.9516Z" fill="#68B346"/>
<path d="M767.081 124.818C699.602 107.591 671.588 54.4312 670.868 53.0446C670.989 53.5379 673.201 61.6712 678.534 72.1112C684.028 82.8979 692.854 96.1379 706.148 105.991C710.814 109.458 715.508 112.565 720.094 115.271L721.748 132.845L758.361 143.951L736.961 123.711C748.921 131.085 761.801 131.765 767.081 124.818Z" fill="#4E912C"/>
</svg>
