<?xml version="1.0" encoding="UTF-8" standalone="no"?>
<svg
   xmlns:dc="http://purl.org/dc/elements/1.1/"
   xmlns:cc="http://creativecommons.org/ns#"
   xmlns:rdf="http://www.w3.org/1999/02/22-rdf-syntax-ns#"
   xmlns:svg="http://www.w3.org/2000/svg"
   xmlns="http://www.w3.org/2000/svg"
   viewBox="0 0 1440 1440"
   height="1440"
   width="1440"
   xml:space="preserve"
   id="svg2"
   version="1.1"><metadata
     id="metadata8"><rdf:RDF><cc:Work
         rdf:about=""><dc:format>image/svg+xml</dc:format><dc:type
           rdf:resource="http://purl.org/dc/dcmitype/StillImage" /></cc:Work></rdf:RDF></metadata><defs
     id="defs6"><clipPath
       id="clipPath18"
       clipPathUnits="userSpaceOnUse"><path
         id="path16"
         d="M 0,1080 H 1080 V 0 H 0 Z" /></clipPath></defs><g
     transform="matrix(1.3333333,0,0,-1.3333333,0,1440)"
     id="g10"><g
       id="g12"><g
         clip-path="url(#clipPath18)"
         id="g14"><g
           transform="translate(254.498,564.6147)"
           id="g20"><path
             id="path22"
             style="fill:#101010;fill-opacity:1;fill-rule:nonzero;stroke:none"
             d="m 0,0 h 8.215 v -15.938 c 3.944,9.694 12.159,17.252 28.916,17.252 19.058,0 31.874,-12.815 31.874,-33.023 V -82.806 H 60.79 v 49.453 c 0,16.594 -10.187,26.945 -25.466,26.945 -16.594,0 -27.11,-12.815 -27.11,-31.873 v -44.525 h -8.215 l 0,82.806 z" /></g><g
           transform="translate(408.2808,528.6328)"
           id="g24"><path
             id="path26"
             style="fill:#101010;fill-opacity:1;fill-rule:nonzero;stroke:none"
             d="M 0,0 C -0.164,16.923 -13.308,30.231 -29.737,30.231 -46.989,30.231 -61.119,16.923 -61.775,0 Z m -70.155,-5.586 c 0,25.795 17.579,43.539 40.417,43.539 22.508,0 38.446,-18.566 38.446,-41.238 0,0 0,-2.464 -0.165,-4.108 h -70.649 c 0.493,-19.879 13.802,-34.008 32.695,-34.008 15.444,0 26.123,6.572 31.053,12.814 v -9.693 c -7.724,-6.901 -17.088,-10.844 -31.053,-10.844 -23.823,0 -40.746,17.416 -40.746,43.046 v 0.492 z" /></g><g
           transform="translate(473.3437,487.3945)"
           id="g28"><path
             id="path30"
             style="fill:#101010;fill-opacity:1;fill-rule:nonzero;stroke:none"
             d="M 0,0 C 20.208,0 35.324,15.443 35.324,35.816 35.324,56.188 20.208,71.633 0,71.633 -20.208,71.633 -35.324,56.188 -35.324,35.816 -35.324,15.443 -20.209,0 0,0 M 0,79.356 C 24.316,79.356 43.539,60.79 43.539,35.817 43.539,10.844 24.316,-7.722 0,-7.722 c -24.316,0 -43.54,18.566 -43.54,43.539 0,24.973 19.224,43.539 43.54,43.539" /></g><g
           transform="translate(560.2568,564.6147)"
           id="g32"><path
             id="path34"
             style="fill:#101010;fill-opacity:1;fill-rule:nonzero;stroke:none"
             d="m 0,0 h 9.2 l -35.16,-74.92 h 51.097 v 27.109 h 8.543 v -66.705 h -8.543 v 31.71 H -38.94 Z" /></g><g
           transform="translate(769.7285,458.0449)"
           id="g36"><path
             id="path38"
             style="fill:#007acc;fill-opacity:1;fill-rule:nonzero;stroke:none"
             d="m 0,0 c -4.644,0 -8.42,3.775 -8.42,8.419 0,4.644 3.776,8.433 8.42,8.433 C 4.644,16.839 8.419,13.063 8.419,8.419 8.419,3.775 4.644,0 0,0 m -15.309,-18.115 c -4.643,0 -8.419,3.776 -8.419,8.42 0,4.643 3.776,8.419 8.419,8.419 4.644,0 8.42,-3.776 8.42,-8.419 0,-4.644 -3.776,-8.42 -8.42,-8.42 M -58.247,134.89 c 0.688,4.592 4.987,7.768 9.58,7.079 4.592,-0.688 7.769,-4.988 7.08,-9.58 -0.689,-4.592 -4.988,-7.769 -9.58,-7.08 -4.593,0.689 -7.77,4.988 -7.08,9.581 m -4.401,-97.108 c -2.029,-5.319 -7.068,-8.929 -14.161,-10.129 -2.194,-0.395 -7.385,-0.331 -9.746,0.09 -5.14,0.918 -10.013,3.457 -13.024,6.786 -1.187,1.302 -3.47,4.695 -3.33,4.95 0.052,0.077 0.587,0.396 1.174,0.74 l 4.758,2.743 3.674,2.142 0.779,-1.147 c 1.071,-1.645 3.431,-3.903 4.86,-4.656 4.082,-2.144 9.682,-1.837 12.45,0.637 1.174,1.072 1.658,2.195 1.658,3.84 0,1.48 -0.178,2.13 -0.944,3.253 -1.007,1.416 -3.036,2.615 -8.802,5.115 -6.608,2.845 -9.453,4.619 -12.054,7.413 -1.506,1.632 -2.922,4.235 -3.509,6.403 -0.497,1.811 -0.613,6.341 -0.23,8.165 1.366,6.403 6.175,10.83 13.127,12.157 2.258,0.421 7.501,0.255 9.708,-0.294 l 0.013,0.013 c 3.24,-0.816 5.727,-2.258 7.998,-4.605 1.186,-1.263 2.922,-3.559 3.074,-4.108 0,-0.191 -5.549,-3.916 -8.903,-5.995 -0.115,-0.077 -0.612,0.446 -1.161,1.263 -1.646,2.398 -3.368,3.431 -6.009,3.61 -3.891,0.268 -6.403,-1.761 -6.365,-5.154 0,-0.995 0.14,-1.582 0.549,-2.399 0.854,-1.772 2.436,-2.832 7.411,-4.987 9.172,-3.942 13.089,-6.531 15.525,-10.232 2.717,-4.132 3.329,-10.714 1.48,-15.614 m -60.276,37.646 v -47.34 h -11.787 v 47.34 h -16.647 v 5.14 l 0.139,5.269 c 0.052,0.089 10.194,0.128 22.49,0.102 l 22.363,-0.051 0.064,-5.23 0.038,-5.23 z m 43.921,70.42 c 0.69,4.592 4.988,7.768 9.58,7.079 4.593,-0.701 7.77,-4.988 7.08,-9.58 -0.688,-4.592 -4.987,-7.769 -9.58,-7.08 -4.593,0.689 -7.768,4.988 -7.08,9.581 M 1.913,22.72 c -32.172,0 -58.362,26.189 -58.362,58.374 0,32.185 26.19,58.363 58.362,58.363 2.106,0 4.185,-0.116 6.238,-0.345 -17.846,13.93 -40.298,22.222 -64.689,22.197 -11.991,0 -23.511,-2.003 -34.239,-5.69 l -0.779,-1.76 -2.436,-5.486 7.182,-11.162 5.932,-9.223 -10.69,2.449 -20.985,4.835 -2.666,0.612 -0.664,2.641 -0.969,3.814 c -27.223,-19.033 -45.018,-50.606 -45.018,-86.35 0,-33.18 15.333,-62.763 39.29,-82.064 3.521,23.115 23.511,40.86 47.596,40.86 26.559,0 48.156,-21.597 48.156,-48.157 0,-4.196 -0.535,-8.267 -1.556,-12.157 C 12.922,-34.111 44.023,1.837 48.271,45.656 37.581,31.713 20.78,22.72 1.913,22.72" /></g><g
           transform="translate(771.6025,593.0923)"
           id="g40"><path
             id="path42"
             style="fill:#68b346;fill-opacity:1;fill-rule:nonzero;stroke:none"
             d="m 0,0 c -29.722,0 -53.902,-24.18 -53.902,-53.901 0,-29.723 24.18,-53.902 53.902,-53.902 29.722,0 53.9,24.179 53.9,53.902 C 53.9,-24.18 29.722,0 0,0" /></g><g
           transform="translate(694.7109,468.4365)"
           id="g44"><path
             id="path46"
             style="fill:#68b346;fill-opacity:1;fill-rule:nonzero;stroke:none"
             d="m 0,0 c -24.094,0 -43.695,-19.603 -43.695,-43.696 0,-24.093 19.601,-43.696 43.695,-43.696 24.093,0 43.694,19.603 43.694,43.696 C 43.694,-19.603 24.093,0 0,0" /></g><g
           transform="translate(663.248,618.3608)"
           id="g48"><path
             id="path50"
             style="fill:#68b346;fill-opacity:1;fill-rule:nonzero;stroke:none"
             d="m 0,0 c -0.699,-1.573 -2.242,-2.508 -3.859,-2.508 -0.573,0 -1.155,0.117 -1.711,0.364 -2.13,0.947 -3.09,3.441 -2.144,5.571 0.699,1.573 2.242,2.508 3.86,2.508 0.572,0 1.154,-0.118 1.71,-0.365 C -0.013,4.624 0.946,2.13 0,0 m -10.404,4.623 c -1.058,-2.38 -3.393,-3.794 -5.839,-3.794 -0.866,0 -1.747,0.177 -2.589,0.551 -3.224,1.432 -4.675,5.205 -3.243,8.428 1.057,2.38 3.392,3.794 5.839,3.795 0.866,0 1.746,-0.178 2.589,-0.552 3.223,-1.432 4.674,-5.206 3.243,-8.428 m 22.69,13.048 -9.24,-4.889 c -10.005,7.815 -19.311,10.105 -26.778,10.105 -10.57,0.001 -17.458,-4.585 -17.458,-4.585 0,0 3.539,-23.847 33.746,-29.13 l 2.564,-10.134 20.986,-4.828 -8.487,13.195 3.417,7.691 3.418,7.691 15.48,2.545 z" /></g></g></g></g></svg>